<svg width="200" height="238" viewBox="0 0 200 238" fill="none" xmlns="http://www.w3.org/2000/svg">
<rect x="100" y="92" width="100" height="50" fill="black"/>
<path fill-rule="evenodd" clip-rule="evenodd" d="M62.333 50L0.305664 220.419L47.2903 237.52L115.542 50H62.333Z" fill="black"/>
<path fill-rule="evenodd" clip-rule="evenodd" d="M200 0H0V50H200V0ZM26 5H6V25H26V5ZM34 5H54V25H34V5ZM82 5H62V25H82V5ZM90 5H110V25H90V5ZM138 5H118V25H138V5ZM146 5H166V25H146V5ZM194 5H174V25H194V5Z" fill="black"/>
</svg>
